<svg width="24" height="24" viewBox="0 0 24 24" fill="none" xmlns="http://www.w3.org/2000/svg">
<path d="M0 12C0 8.27247 0 6.4087 0.608964 4.93853C1.42092 2.97831 2.97831 1.42092 4.93853 0.608964C6.4087 0 8.27247 0 12 0C15.7275 0 17.5913 0 19.0615 0.608964C21.0217 1.42092 22.5791 2.97831 23.391 4.93853C24 6.4087 24 8.27247 24 12C24 15.7275 24 17.5913 23.391 19.0615C22.5791 21.0217 21.0217 22.5791 19.0615 23.391C17.5913 24 15.7275 24 12 24C8.27247 24 6.4087 24 4.93853 23.391C2.97831 22.5791 1.42092 21.0217 0.608964 19.0615C0 17.5913 0 15.7275 0 12Z" fill="#1C1C1C" fill-opacity="0.05"/>
<path fill-rule="evenodd" clip-rule="evenodd" d="M12.4549 9.60777L18 8L16.6198 13.6061L14.898 11.9532L12.1207 14.8463C12.0264 14.9445 11.8961 15 11.76 15C11.6239 15 11.4936 14.9445 11.3993 14.8463L9.36 12.722L6.36069 15.8463C6.16946 16.0455 5.85294 16.0519 5.65373 15.8607C5.45453 15.6695 5.44807 15.3529 5.63931 15.1537L8.99931 11.6537C9.09359 11.5555 9.22385 11.5 9.36 11.5C9.49615 11.5 9.62641 11.5555 9.72069 11.6537L11.76 13.778L14.1766 11.2607L12.4549 9.60777Z" fill="#292D32"/>
</svg>
