<svg width="24" height="24" viewBox="0 0 24 24" fill="none" xmlns="http://www.w3.org/2000/svg">
<path d="M0 12C0 8.27247 0 6.4087 0.608964 4.93853C1.42092 2.97831 2.97831 1.42092 4.93853 0.608964C6.4087 0 8.27247 0 12 0C15.7275 0 17.5913 0 19.0615 0.608964C21.0217 1.42092 22.5791 2.97831 23.391 4.93853C24 6.4087 24 8.27247 24 12C24 15.7275 24 17.5913 23.391 19.0615C22.5791 21.0217 21.0217 22.5791 19.0615 23.391C17.5913 24 15.7275 24 12 24C8.27247 24 6.4087 24 4.93853 23.391C2.97831 22.5791 1.42092 21.0217 0.608964 19.0615C0 17.5913 0 15.7275 0 12Z" fill="#1C1C1C" fill-opacity="0.05"/>
<g clip-path="url(#clip0_997_6189)">
<path d="M18 15.2222L11.9333 9.15556L9.62222 12.6222L5 8" stroke="#292D32" stroke-linecap="round" stroke-linejoin="round"/>
<g clip-path="url(#clip1_997_6189)">
<path fill-rule="evenodd" clip-rule="evenodd" d="M17.494 11.1253L19.7721 16.4303L14.0387 15.7507L15.4671 13.8386L12.2542 11.4385C12.1451 11.357 12.074 11.2346 12.0572 11.0994C12.0404 10.9643 12.0795 10.8282 12.1654 10.7226L14.0225 8.43728L10.5527 5.84536C10.3315 5.6801 10.2861 5.36679 10.4514 5.14556C10.6167 4.92433 10.93 4.87895 11.1512 5.04422L15.0382 7.94784C15.1473 8.02932 15.2184 8.15175 15.2352 8.28686C15.2519 8.42198 15.2129 8.55808 15.127 8.66374L13.2699 10.949L16.0656 13.0374L17.494 11.1253Z" fill="#292D32"/>
</g>
</g>
<defs>
<clipPath id="clip0_997_6189">
<rect width="16" height="16" fill="white" transform="translate(4 4)"/>
</clipPath>
<clipPath id="clip1_997_6189">
<rect width="6" height="5" fill="white" transform="translate(21.5889 13.9766) rotate(126.525)"/>
</clipPath>
</defs>
</svg>
