<svg width="35" height="35" viewBox="0 0 35 35" fill="none" xmlns="http://www.w3.org/2000/svg">
<path d="M21.8752 24.7916V26.2499C21.8752 28.6662 19.9164 30.6249 17.5002 30.6249C15.0839 30.6249 13.1252 28.6662 13.1252 26.2499V24.7916M21.8752 24.7916H13.1252M21.8752 24.7916H27.1113C27.6692 24.7916 27.9494 24.7916 28.1753 24.7154C28.6068 24.5699 28.9444 24.2311 29.0899 23.7996C29.1664 23.5728 29.1664 23.2917 29.1664 22.7294C29.1664 22.4834 29.1661 22.3604 29.1469 22.2431C29.1105 22.0214 29.0245 21.8112 28.8935 21.6288C28.8243 21.5324 28.7362 21.4444 28.5628 21.2709L27.9947 20.7028C27.8115 20.5196 27.7085 20.2709 27.7085 20.0118V14.5833C27.7085 8.94534 23.1381 4.3749 17.5002 4.37492C11.8623 4.37493 7.29183 8.94536 7.29183 14.5833V20.0118C7.29183 20.271 7.18864 20.5196 7.00536 20.7028L6.43734 21.2709C6.26337 21.4448 6.17626 21.5323 6.10693 21.6288C5.97591 21.8113 5.88913 22.0214 5.85275 22.2431C5.8335 22.3604 5.8335 22.4834 5.8335 22.7294C5.8335 23.2917 5.8335 23.5728 5.90999 23.7995C6.05553 24.231 6.39466 24.5699 6.82613 24.7154C7.05202 24.7916 7.33123 24.7916 7.8891 24.7916H13.1252M26.2772 2.93652C28.2886 4.45219 29.8731 6.46291 30.8766 8.77287M8.72386 2.93652C6.71251 4.45219 5.12795 6.46291 4.12451 8.77287" stroke="black" stroke-width="1.5" stroke-linecap="round" stroke-linejoin="round"/>
</svg>
