<svg width="24" height="24" viewBox="0 0 24 24" fill="none" xmlns="http://www.w3.org/2000/svg">
<g opacity="0.8">
<rect width="24" height="24" rx="12" fill="#852221" fill-opacity="0.08"/>
<path d="M16.5348 8.615C15.7298 8.535 14.9248 8.475 14.1148 8.43V8.425L14.0048 7.775C13.9298 7.315 13.8198 6.625 12.6498 6.625H11.3398C10.1748 6.625 10.0648 7.285 9.98483 7.77L9.87983 8.41C9.41483 8.44 8.94983 8.47 8.48483 8.515L7.46483 8.615C7.25483 8.635 7.10483 8.82 7.12483 9.025C7.14483 9.23 7.32483 9.38 7.53483 9.36L8.55483 9.26C11.1748 9 13.8148 9.1 16.4648 9.365C16.4798 9.365 16.4898 9.365 16.5048 9.365C16.6948 9.365 16.8598 9.22 16.8798 9.025C16.8948 8.82 16.7448 8.635 16.5348 8.615Z" fill="#FF3B30"/>
<path d="M15.6149 10.07C15.4949 9.945 15.3299 9.875 15.1599 9.875H8.83987C8.66987 9.875 8.49987 9.945 8.38487 10.07C8.26987 10.195 8.20487 10.365 8.21487 10.54L8.52487 15.67C8.57987 16.43 8.64987 17.38 10.3949 17.38H13.6049C15.3499 17.38 15.4199 16.435 15.4749 15.67L15.7849 10.545C15.7949 10.365 15.7299 10.195 15.6149 10.07ZM12.8299 14.875H11.1649C10.9599 14.875 10.7899 14.705 10.7899 14.5C10.7899 14.295 10.9599 14.125 11.1649 14.125H12.8299C13.0349 14.125 13.2049 14.295 13.2049 14.5C13.2049 14.705 13.0349 14.875 12.8299 14.875ZM13.2499 12.875H10.7499C10.5449 12.875 10.3749 12.705 10.3749 12.5C10.3749 12.295 10.5449 12.125 10.7499 12.125H13.2499C13.4549 12.125 13.6249 12.295 13.6249 12.5C13.6249 12.705 13.4549 12.875 13.2499 12.875Z" fill="#FF3B30"/>
</g>
</svg>
