<svg width="24" height="24" viewBox="0 0 24 24" fill="none" xmlns="http://www.w3.org/2000/svg">
<g opacity="0.8">
<rect width="24" height="24" rx="12" fill="#007AFF" fill-opacity="0.15"/>
<path d="M16.5 17H7.5C7.295 17 7.125 16.83 7.125 16.625C7.125 16.42 7.295 16.25 7.5 16.25H16.5C16.705 16.25 16.875 16.42 16.875 16.625C16.875 16.83 16.705 17 16.5 17Z" fill="#007AFF"/>
<path d="M15.5098 7.74008C14.5398 6.77008 13.5898 6.74508 12.5948 7.74008L11.9898 8.34508C11.9398 8.39508 11.9198 8.47508 11.9398 8.54508C12.3198 9.87008 13.3798 10.9301 14.7048 11.3101C14.7248 11.3151 14.7448 11.3201 14.7648 11.3201C14.8198 11.3201 14.8698 11.3001 14.9098 11.2601L15.5098 10.6551C16.0048 10.1651 16.2448 9.69008 16.2448 9.21008C16.2498 8.71508 16.0098 8.23508 15.5098 7.74008Z" fill="#007AFF"/>
<path d="M13.8052 11.7649C13.6602 11.6949 13.5202 11.6249 13.3852 11.5449C13.2752 11.4799 13.1702 11.4099 13.0652 11.3349C12.9802 11.2799 12.8802 11.1999 12.7852 11.1199C12.7752 11.1149 12.7402 11.0849 12.7002 11.0449C12.5352 10.9049 12.3502 10.7249 12.1852 10.5249C12.1702 10.5149 12.1452 10.4799 12.1102 10.4349C12.0602 10.3749 11.9752 10.2749 11.9002 10.1599C11.8402 10.0849 11.7702 9.9749 11.7052 9.8649C11.6252 9.7299 11.5552 9.5949 11.4852 9.4549C11.3934 9.25823 11.1353 9.19981 10.9818 9.35327L8.17016 12.1649C8.10516 12.2299 8.04516 12.3549 8.03016 12.4399L7.76016 14.3549C7.71016 14.6949 7.80516 15.0149 8.01516 15.2299C8.19516 15.4049 8.44516 15.4999 8.71516 15.4999C8.77516 15.4999 8.83516 15.4949 8.89516 15.4849L10.8152 15.2149C10.9052 15.1999 11.0302 15.1399 11.0902 15.0749L13.9064 12.2586C14.0568 12.1082 14.0003 11.8495 13.8052 11.7649Z" fill="#007AFF"/>
</g>
</svg>
