<svg width="113" height="64" viewBox="0 0 113 64" fill="none" xmlns="http://www.w3.org/2000/svg">
<path d="M77.2285 58.1814L78.3156 64.0002C81.9324 63.0173 85.2321 61.1122 87.8919 58.4715C90.5517 55.8308 92.4804 52.5448 93.4893 48.9352C97.0126 36.4087 95.4076 27.0154 95.4076 27.0154C95.4076 27.0154 94.327 40.1366 92.9714 43.0012C91.6158 45.8659 89.0197 55.3487 77.2285 58.1814Z" fill="#56744E"/>
<path d="M84.0896 1.62964C84.0896 1.62964 75.777 25.6979 93.9561 25.9281C93.9561 25.9281 109.347 15.435 84.6779 1.62964" fill="#8174A0"/>
<path d="M95.8361 27.1239C95.9055 27.0634 95.9717 26.9994 96.0343 26.9321C97.2685 25.6532 103.618 18.3253 95.0752 8.50359C95.0752 8.50359 102.358 1.57213 104.027 2.03892C105.696 2.5057 111.432 25.0585 96.5075 27.1814" fill="#8174A0"/>
<path d="M102.007 4.17456C102.007 4.17456 111.54 10.2748 99.7749 24.4126C99.7749 24.4126 106.873 14.2904 102.007 4.4687" fill="#5A5170"/>
<path d="M90.9999 25.2697C90.9999 25.2697 79.7351 24.1683 83.791 6.22789C83.791 6.22789 82.0683 18.47 90.8662 25.0077" fill="#B6AEC8"/>
<path d="M94.643 8.34331L98.5244 5.28681C98.5244 5.28681 98.4029 3.88006 94.9947 0.00509435C94.9947 0.00509435 93.9397 -0.352989 90.7681 4.93513" fill="#8174A0"/>
<path d="M91.1392 4.57684C91.1392 4.57684 94.2212 -0.116601 94.8415 0.16475L93.7289 6.84683" fill="#B6AEC8"/>
<path d="M97.8594 4.81406C97.8594 4.90358 97.8594 4.7629 97.8083 4.71814C97.7873 4.67211 97.7639 4.62727 97.7379 4.58386C97.6612 4.44319 97.5845 4.30891 97.5141 4.16823C97.4918 4.13243 97.4746 4.09369 97.463 4.05313C97.3968 3.95217 97.3512 3.83919 97.3287 3.72063L94.6431 0.152588L95.6534 6.84746L97.9681 5.08262C97.9198 4.99849 97.8832 4.90813 97.8594 4.81406Z" fill="#5A5170"/>
<path d="M66.6994 21.6549C66.6994 21.6549 73.1157 26.6352 75.0108 38.8292C75.0108 38.8292 77.8253 48.8203 86.4901 52.985C86.4901 52.985 85.3035 37.3576 81.2462 34.0989C81.2462 34.0989 87.8924 38.5178 89.2607 52.5356C89.2607 52.5356 100.412 28.3758 67.4302 21.7674" fill="#56744E"/>
<path d="M89.64 49.6235C89.64 49.6235 90.3791 30.2062 74.8086 26.5709C74.8086 26.5709 83.6927 33.0026 86.6429 40.1582" fill="#4E8354"/>
<path d="M85.6168 51.8965C85.6168 51.8965 76.6122 45.8608 76.186 36.4241C76.186 36.4241 84.9358 52.2723 85.8555 51.9654L85.6168 51.8965Z" fill="#48673D"/>
<path d="M92.2305 52.232C92.2305 52.232 98.4905 43.1968 100.882 42.5318L101.087 42.4934C101.087 42.4934 95.3317 48.2483 94.2958 55.4803V55.9215C94.2958 55.9215 106.694 49.8725 108.76 43.3758C110.627 37.5058 111.772 31.6295 112.846 30.7854C110.352 31.0859 96.7577 32.7037 92.2305 52.232Z" fill="#56744E"/>
<path d="M94.9801 46.0999C94.9801 46.0999 99.8717 35.0633 109.265 33.4519C109.265 33.4519 95.4277 44.9106 94.833 47.4427" fill="#4E8354"/>
<path d="M94.833 55.3268C94.833 55.3268 105.396 48.9261 107.929 42.0969C107.929 42.0969 95.4277 55.4867 94.833 54.5978" fill="#48673D"/>
<path d="M78.9424 63.3284C78.9424 63.3284 87.7218 60.0545 90.7016 53.6538L78.9424 63.3284Z" fill="#48673D"/>
<path d="M93.425 43.762C93.425 43.762 86.078 61.2121 77.6055 60.3361C77.6055 60.3361 85.7646 54.9648 88.2712 52.1321" fill="#4E8354"/>
<path d="M13.2974 37.7806C11.1503 37.7806 9.4491 37.2108 8.19387 36.0712C6.93865 34.9316 6.31104 33.313 6.31104 31.2154C6.31104 29.4317 6.75697 27.8544 7.64884 26.4836C8.55723 25.1127 9.75465 24.0557 11.2411 23.3125C12.7276 22.5693 14.3296 22.1976 16.0473 22.1976C17.4677 22.1976 18.6568 22.4371 19.6148 22.9161C20.5727 23.3951 21.2416 23.9566 21.6215 24.6007L19.7386 35.1793L18.0292 37.7806H13.2974ZM17.5337 24.5512L17.7072 26.1863C17.6411 25.9716 17.4677 25.8229 17.1869 25.7403C16.9061 25.6413 16.5263 25.5917 16.0473 25.5917C14.9242 25.5917 13.9332 25.8312 13.0744 26.3102C12.2321 26.7726 11.5714 27.4415 11.0925 28.3169C10.6135 29.1922 10.374 30.2162 10.374 31.3889C10.374 32.4624 10.597 33.2304 11.0429 33.6929C11.4888 34.1553 12.2403 34.3865 13.2974 34.3865H16.2703L15.7748 34.6095L17.5337 24.5512ZM17.9797 19.9432C17.3851 19.9432 16.9061 19.7945 16.5428 19.4972C16.1959 19.1834 16.0225 18.7705 16.0225 18.2585C16.0225 17.5153 16.2703 16.9125 16.7657 16.45C17.2612 15.9876 17.8971 15.7563 18.6734 15.7563C19.2679 15.7563 19.7386 15.9133 20.0855 16.2271C20.4488 16.5409 20.6305 16.9538 20.6305 17.4658C20.6305 18.1925 20.3828 18.7871 19.8873 19.2495C19.3918 19.712 18.7559 19.9432 17.9797 19.9432ZM12.9753 19.9432C12.3807 19.9432 11.91 19.7945 11.5632 19.4972C11.2163 19.1834 11.0429 18.7705 11.0429 18.2585C11.0429 17.5153 11.2906 16.9125 11.7861 16.45C12.2816 15.9876 12.9175 15.7563 13.6937 15.7563C14.2883 15.7563 14.759 15.9133 15.1059 16.2271C15.4692 16.5409 15.6509 16.9538 15.6509 17.4658C15.6509 18.1925 15.3949 18.7871 14.8829 19.2495C14.3874 19.712 13.7516 19.9432 12.9753 19.9432Z" fill="#5A5170"/>
<path d="M26.5506 37.7806C25.3449 37.7806 24.4283 37.5411 23.8006 37.0622C23.173 36.5667 22.8592 35.84 22.8592 34.882C22.8592 34.3865 22.9418 33.9406 23.107 33.5442C23.7511 33.8085 24.3374 34.0149 24.8659 34.1636C25.3945 34.3122 25.9065 34.3865 26.4019 34.3865H33.8837L32.323 35.4518C32.3065 35.0885 32.3395 34.6673 32.4221 34.1883C32.5212 33.6929 32.6533 33.0653 32.8185 32.3055C33.0001 31.4632 33.1323 30.786 33.2148 30.274C33.3139 29.7455 33.3635 29.2665 33.3635 28.8371C33.3635 27.7636 33.0745 26.946 32.4964 26.3845C31.9183 25.8229 31.1668 25.5422 30.2419 25.5422C29.317 25.5422 28.5986 25.8312 28.0866 26.4093C27.5746 26.9873 27.2856 27.8379 27.2195 28.961C25.1054 28.961 24.0484 28.1765 24.0484 26.6074C24.0484 25.8147 24.2961 25.0797 24.7916 24.4025C25.3036 23.7254 26.0221 23.1803 26.947 22.7674C27.8884 22.3545 28.9785 22.1481 30.2172 22.1481C31.6706 22.1481 32.9341 22.4289 34.0076 22.9904C35.0977 23.552 35.9317 24.3447 36.5098 25.3687C37.1044 26.3762 37.4017 27.5323 37.4017 28.8371C37.4017 29.4647 37.3439 30.1171 37.2283 30.7943C37.1126 31.4714 36.9475 32.2807 36.7328 33.2222C36.6337 33.6681 36.5428 34.081 36.4603 34.4609C36.3942 34.8407 36.3694 35.1215 36.3859 35.3032L34.8252 37.7806H26.5506Z" fill="#5A5170"/>
<path d="M39.9826 46.2038C38.5623 46.2038 37.4639 45.9561 36.6877 45.4606C35.8949 44.9816 35.4985 44.3623 35.4985 43.6025C37.2492 43.6025 38.6448 43.3548 39.6854 42.8593C40.7259 42.3803 41.5104 41.6784 42.0389 40.7535C42.5674 39.8451 42.9803 38.6229 43.2776 37.0869C43.3272 36.8557 43.3685 36.6162 43.4015 36.3685C43.451 36.1042 43.5006 35.8317 43.5501 35.5509C43.8805 33.7011 44.3099 30.9925 44.8384 27.425L44.987 29.0353L43.4758 25.5422C44.2355 25.0302 44.921 24.6503 45.5321 24.4025C46.1432 24.1548 46.7047 24.0309 47.2167 24.0309C47.8113 24.0309 48.282 24.1796 48.6288 24.4769C48.9757 24.7576 49.1491 25.1292 49.1491 25.5917C49.1491 25.8064 49.0417 26.5909 48.827 27.9453C48.6288 29.2996 48.3563 31.0751 48.0095 33.2717L47.6874 35.2784C47.2745 37.921 46.7543 40.0351 46.1266 41.6206C45.499 43.2062 44.6897 44.3623 43.6988 45.089C42.7243 45.8322 41.4856 46.2038 39.9826 46.2038Z" fill="#5A5170"/>
<path d="M57.4757 46.2038C55.9893 46.2038 54.8497 45.9643 54.0569 45.4854C53.2641 45.0064 52.8677 44.3788 52.8677 43.6025C54.701 43.6025 56.1132 43.3713 57.1041 42.9089C58.1116 42.4629 58.8548 41.7858 59.3338 40.8774C59.8293 39.9855 60.2505 38.722 60.5973 37.0869C60.8615 35.9308 61.1588 34.3452 61.4892 32.3303C61.8195 30.2988 62.125 28.3499 62.4058 26.4836L62.604 25.0714L62.7031 26.2854C62.4058 26.1037 62.0259 25.9385 61.5635 25.7899C61.101 25.6413 60.6138 25.5669 60.1018 25.5669C59.1604 25.5669 58.3346 25.8394 57.6244 26.3845C56.9142 26.9295 56.3692 27.6645 55.9893 28.5894C55.6094 29.4978 55.4195 30.5053 55.4195 31.6118C55.4195 32.6193 55.6094 33.3378 55.9893 33.7672C56.3692 34.1801 56.9885 34.3865 57.8474 34.3865H61.613V37.7806H57.6244C55.5268 37.7806 53.9578 37.2686 52.9173 36.2446C51.8933 35.2206 51.3813 33.6929 51.3813 31.6614C51.3813 29.8942 51.7446 28.2921 52.4714 26.8552C53.2146 25.4018 54.2468 24.2539 55.5681 23.4116C56.8894 22.5693 58.4172 22.1481 60.1514 22.1481C61.3075 22.1481 62.3397 22.3298 63.2481 22.6931C64.1565 23.04 64.8832 23.4446 65.4283 23.9071C65.9898 24.353 66.3614 24.7329 66.5431 25.0467C66.5431 25.3274 66.3862 26.5909 66.0724 28.8371C65.7586 31.0668 65.42 33.2139 65.0566 35.2784C64.5612 38.0366 64.0244 40.1837 63.4463 41.7197C62.8683 43.2557 62.1168 44.3871 61.1919 45.1138C60.267 45.8405 59.0283 46.2038 57.4757 46.2038Z" fill="#5A5170"/>
<path d="M1.65035 60.4497C1.06265 60.4497 0.638954 60.3105 0.379272 60.032C0.126424 59.7466 0 59.2872 0 58.6537C0 58.424 0.0136675 58.2116 0.0410024 58.0167C0.0683373 57.8149 0.10934 57.5747 0.16401 57.2962C0.211846 57.0456 0.246014 56.8333 0.266516 56.6593C0.29385 56.4853 0.307518 56.3008 0.307518 56.1059C0.307518 55.8413 0.276766 55.5768 0.215263 55.3123C0.454443 55.1591 0.666289 55.0826 0.8508 55.0826C1.01481 55.0826 1.1344 55.1382 1.20957 55.2496C1.28474 55.354 1.32233 55.5281 1.32233 55.7717C1.32233 55.9388 1.30524 56.1267 1.27107 56.3356C1.24374 56.5375 1.19932 56.7741 1.13782 57.0456C1.05581 57.4633 0.997725 57.7905 0.963556 58.0272C0.929388 58.2639 0.912303 58.511 0.912303 58.7686C0.912303 58.9983 0.932805 59.1688 0.973807 59.2802C1.02164 59.3916 1.0934 59.4682 1.18907 59.5099C1.29158 59.5447 1.44533 59.5621 1.65035 59.5621H7.19592L7.11391 59.771C7.11391 59.1723 7.19934 58.4414 7.37018 57.5782C7.54102 56.715 7.70845 55.9771 7.87246 55.3645C7.88613 55.3227 7.89638 55.2844 7.90321 55.2496C7.91005 55.2148 7.91688 55.187 7.92371 55.1661L8.00572 55.636L7.38043 55.0095C7.51027 54.8981 7.66403 54.8111 7.84171 54.7484C8.01939 54.6858 8.19023 54.6544 8.35424 54.6544C8.52508 54.6544 8.64809 54.6962 8.72326 54.7797C8.79843 54.8563 8.83602 54.9886 8.83602 55.1765C8.82918 55.2044 8.81552 55.2566 8.79501 55.3332C8.78135 55.4028 8.76426 55.4933 8.74376 55.6047C8.55242 56.4191 8.38499 57.1883 8.24148 57.9123C8.09797 58.6363 8.02622 59.2558 8.02622 59.771L7.60594 60.4497H1.65035ZM3.39295 62.5172C3.2221 62.5172 3.08201 62.472 2.97267 62.3815C2.87017 62.291 2.81891 62.1726 2.81891 62.0264C2.81891 61.8037 2.89067 61.6227 3.03418 61.4834C3.17769 61.3512 3.36561 61.2851 3.59796 61.2851C3.7688 61.2851 3.90548 61.3303 4.00798 61.4208C4.11732 61.5183 4.17199 61.6436 4.17199 61.7967C4.17199 62.0125 4.10024 62.1865 3.95673 62.3188C3.81322 62.4511 3.62529 62.5172 3.39295 62.5172Z" fill="#3C3C3C"/>
<path d="M14.2765 59.5621H15.9884L15.8449 60.4497H14.0613L14.2765 59.5621ZM11.3038 64C10.928 64 10.6615 63.9338 10.5043 63.8016C10.354 63.6763 10.2788 63.5335 10.2788 63.3734C10.9827 63.3734 11.5157 63.2725 11.8779 63.0706C12.2401 62.8757 12.5408 62.4789 12.7799 61.8802C13.0191 61.2885 13.2583 60.3418 13.4975 59.04C13.6068 58.4274 13.7127 57.7696 13.8152 57.0665C13.9246 56.3565 14.0168 55.7369 14.092 55.2079L14.1638 54.7066L14.3073 55.1243C14.1774 55.0338 14.0066 54.9468 13.7947 54.8633C13.5829 54.7797 13.3437 54.738 13.0772 54.738C12.6672 54.738 12.2777 54.8563 11.9086 55.093C11.5464 55.3227 11.2492 55.6673 11.0168 56.1267C10.7913 56.5862 10.6786 57.1361 10.6786 57.7766C10.6786 58.4309 10.8016 58.8939 11.0476 59.1653C11.2936 59.4299 11.6558 59.5621 12.1341 59.5621H13.6512V60.4497H12.1341C11.3688 60.4497 10.7811 60.22 10.371 59.7605C9.96785 59.3011 9.76626 58.6363 9.76626 57.7661C9.76626 57.0282 9.90635 56.3634 10.1865 55.7717C10.4735 55.1731 10.8699 54.7032 11.3756 54.3621C11.8813 54.021 12.4485 53.8504 13.0772 53.8504C13.4189 53.8504 13.723 53.8991 13.9895 53.9966C14.256 54.0871 14.4747 54.195 14.6455 54.3203C14.8232 54.4386 14.9565 54.557 15.0453 54.6753C15.0453 54.7728 14.9736 55.3297 14.8301 56.346C14.6865 57.3624 14.543 58.3056 14.3995 59.1758C14.2355 60.1573 14.0476 60.9822 13.8357 61.6505C13.6307 62.3258 13.3232 62.8861 12.9132 63.3317C12.51 63.7772 11.9736 64 11.3038 64ZM15.9884 59.5621C16.0499 59.5621 16.0875 59.5969 16.1011 59.6666C16.1148 59.7362 16.1114 59.8475 16.0909 60.0007C16.0635 60.1538 16.0294 60.2652 15.9884 60.3348C15.9542 60.4114 15.9064 60.4497 15.8449 60.4497L15.9884 59.5621Z" fill="#3C3C3C"/>
<path d="M18.9633 60.4497C18.7309 60.4497 18.5362 60.3836 18.379 60.2513C18.2287 60.126 18.1159 59.952 18.0407 59.7292L18.3893 59.9067H17.4974L18.3482 57.2858L18.3277 57.432C18.3004 57.613 18.2765 57.7905 18.256 57.9645C18.2355 58.1316 18.2252 58.2673 18.2252 58.3718C18.2252 58.7268 18.3175 59.0157 18.502 59.2384C18.6865 59.4542 18.9428 59.5621 19.2708 59.5621H19.7526L19.6091 60.4497H18.9633ZM16.0009 59.5621H17.4359L17.1489 59.6457C17.1694 59.3115 17.2446 58.6955 17.3744 57.7975C17.5043 56.8925 17.6615 55.8657 17.846 54.7171C17.9075 54.3551 17.9656 54.0105 18.0202 53.6833C18.0817 53.3492 18.1398 53.0429 18.1945 52.7645L18.3482 53.109L17.7435 52.4616C17.8596 52.3572 18.0134 52.2702 18.2047 52.2006C18.3961 52.131 18.5703 52.0962 18.7275 52.0962C18.8779 52.0962 18.9906 52.131 19.0658 52.2006C19.1478 52.2702 19.1888 52.3781 19.1888 52.5243C19.1888 52.6357 19.158 52.8619 19.0965 53.203C19.035 53.5372 18.9633 53.9061 18.8813 54.3099C18.6421 55.549 18.4542 56.5966 18.3175 57.4529C18.1877 58.3091 18.1227 59.0818 18.1227 59.771L17.6922 60.4497H15.8574L16.0009 59.5621ZM15.8574 60.4497C15.7959 60.4497 15.7583 60.4149 15.7446 60.3453C15.7309 60.2757 15.7343 60.1643 15.7548 60.0111C15.7822 59.858 15.8164 59.7466 15.8574 59.677C15.8915 59.6004 15.9394 59.5621 16.0009 59.5621L15.8574 60.4497ZM19.7526 59.5621C19.8141 59.5621 19.8517 59.5969 19.8653 59.6666C19.879 59.7362 19.8756 59.8475 19.8551 60.0007C19.8278 60.1538 19.7936 60.2652 19.7526 60.3348C19.7184 60.4114 19.6706 60.4497 19.6091 60.4497L19.7526 59.5621Z" fill="#3C3C3C"/>
<path d="M19.7648 59.5621H21.2613L20.9846 59.8441V59.5517C20.9846 59.4264 21.0051 59.2419 21.0461 58.9983C21.0939 58.7477 21.1452 58.4866 21.1998 58.2151C21.2955 57.7696 21.3707 57.3798 21.4254 57.0456C21.4869 56.7045 21.5176 56.4052 21.5176 56.1476C21.5176 56.0154 21.5074 55.8866 21.4869 55.7613C21.4732 55.629 21.4527 55.5037 21.4254 55.3854C21.5347 55.3158 21.644 55.2601 21.7534 55.2183C21.8627 55.1765 21.9652 55.1556 22.0609 55.1556C22.2249 55.1556 22.3445 55.2148 22.4197 55.3332C22.5017 55.4445 22.5427 55.6151 22.5427 55.8448C22.5427 55.998 22.5256 56.1616 22.4914 56.3356C22.4641 56.5096 22.4197 56.7324 22.3582 57.0039C22.2898 57.331 22.2386 57.5851 22.2044 57.7661C22.1771 57.9402 22.1634 58.1177 22.1634 58.2987C22.1634 58.6955 22.2557 59.0052 22.4402 59.228C22.6247 59.4508 22.8844 59.5621 23.2192 59.5621H24.4595L24.1828 59.8441V59.5517C24.1828 59.4264 24.2067 59.2315 24.2545 58.9669C24.3024 58.6955 24.357 58.4135 24.4185 58.1212C24.521 57.613 24.5996 57.1849 24.6543 56.8368C24.7158 56.4887 24.7465 56.1894 24.7465 55.9388C24.7465 55.8135 24.7363 55.6882 24.7158 55.5629C24.7021 55.4306 24.6816 55.3053 24.6543 55.187C24.7636 55.1174 24.873 55.0617 24.9823 55.0199C25.0917 54.9781 25.1942 54.9573 25.2898 54.9573C25.4538 54.9573 25.5734 55.0164 25.6486 55.1348C25.7306 55.2461 25.7716 55.4132 25.7716 55.636C25.7716 55.7961 25.7545 55.9771 25.7204 56.179C25.6862 56.3808 25.6383 56.621 25.5768 56.8994C25.5017 57.2614 25.447 57.5434 25.4128 57.7452C25.3787 57.9402 25.3616 58.1281 25.3616 58.3091C25.3616 58.7059 25.4538 59.0157 25.6383 59.2384C25.8229 59.4542 26.0825 59.5621 26.4174 59.5621H27.668L27.4015 59.8441V59.5517C27.4015 59.4264 27.4254 59.221 27.4732 58.9356C27.5279 58.6432 27.5894 58.337 27.6577 58.0167C27.7807 57.3693 27.8696 56.8751 27.9242 56.534C27.9857 56.1929 28.0165 55.8935 28.0165 55.636C28.0165 55.5107 28.0062 55.3854 27.9857 55.2601C27.9721 55.1278 27.9516 55.0025 27.9242 54.8842C28.0336 54.8145 28.1429 54.7589 28.2523 54.7171C28.3616 54.6753 28.4641 54.6544 28.5598 54.6544C28.7238 54.6544 28.8434 54.7101 28.9185 54.8215C29.0005 54.9329 29.0415 55.0965 29.0415 55.3123C29.0415 55.4793 29.0176 55.6917 28.9698 55.9492C28.9288 56.1998 28.8639 56.5375 28.775 56.9621C28.6452 57.5886 28.5461 58.1177 28.4778 58.5493C28.4094 58.9809 28.3753 59.3881 28.3753 59.771L27.9447 60.4497H25.9869C25.7545 60.4497 25.5598 60.3836 25.4026 60.2513C25.2522 60.126 25.1395 59.952 25.0643 59.7292L25.3411 59.9067H25.0746L24.726 60.4497H22.7887C22.5563 60.4497 22.3616 60.3836 22.2044 60.2513C22.0541 60.126 21.9413 59.952 21.8661 59.7292L22.1429 59.9067H21.8764L21.5279 60.4497H19.6212L19.7648 59.5621ZM19.6212 60.4497C19.5597 60.4497 19.5222 60.4149 19.5085 60.3453C19.4948 60.2757 19.4982 60.1643 19.5187 60.0111C19.5461 59.858 19.5802 59.7466 19.6212 59.677C19.6554 59.6004 19.7033 59.5621 19.7648 59.5621L19.6212 60.4497Z" fill="#3C3C3C"/>
<path d="M32.1183 60.4497C31.7903 60.4497 31.4555 60.394 31.1138 60.2826C30.7789 60.1782 30.5158 60.0564 30.3245 59.9172L30.6422 59.5621H32.5694L32.4258 60.4497H32.1183ZM30.6627 60.4497C30.4987 60.4497 30.3689 60.3975 30.2732 60.2931C30.1775 60.1887 30.1297 60.0355 30.1297 59.8336C30.1297 59.5273 30.2254 58.7268 30.4167 57.432C30.6081 56.1372 30.7892 54.9677 30.96 53.9235C30.9737 53.826 30.9839 53.7425 30.9908 53.6729C31.0044 53.6033 31.0147 53.5511 31.0215 53.5163L31.206 53.7355L30.6012 53.0881C30.7311 52.9768 30.8917 52.8898 31.083 52.8271C31.2744 52.7575 31.4418 52.7227 31.5853 52.7227C31.7288 52.7227 31.8416 52.7575 31.9236 52.8271C32.0056 52.8967 32.0466 53.0011 32.0466 53.1404C32.0466 53.2448 32.0158 53.4675 31.9543 53.8086C31.8928 54.1428 31.8245 54.5117 31.7493 54.9155C31.5511 55.9597 31.394 56.8577 31.2778 57.6095C31.1616 58.3613 31.1035 58.9913 31.1035 59.4995C31.1035 59.7083 31.1172 59.8615 31.1445 59.9589C31.1719 60.0564 31.2197 60.1399 31.288 60.2095C31.1992 60.2861 31.1001 60.3453 30.9908 60.387C30.8814 60.4288 30.7721 60.4497 30.6627 60.4497ZM32.5694 59.5621C32.6309 59.5621 32.6684 59.5969 32.6821 59.6666C32.6958 59.7362 32.6924 59.8475 32.6719 60.0007C32.6445 60.1538 32.6104 60.2652 32.5694 60.3348C32.5352 60.4114 32.4874 60.4497 32.4258 60.4497L32.5694 59.5621ZM30.591 52.2946C30.4406 52.2946 30.3381 52.2667 30.2835 52.211C30.2356 52.1553 30.2117 52.0753 30.2117 51.9709C30.2117 51.8177 30.2561 51.6367 30.345 51.4279C30.5363 51.4836 30.7003 51.5114 30.837 51.5114C30.9327 51.5114 31.0693 51.5045 31.247 51.4905C31.2675 51.4905 31.288 51.4905 31.3085 51.4905C31.329 51.4836 31.3495 51.4801 31.37 51.4801L31.3393 51.6263C31.1411 51.4592 30.9873 51.2678 30.878 51.052C30.7755 50.8362 30.7242 50.6134 30.7242 50.3837C30.7242 50.1192 30.7994 49.9138 30.9498 49.7676C31.1069 49.6214 31.3393 49.5483 31.6468 49.5483C31.9475 49.5483 32.2174 49.604 32.4566 49.7154C32.6958 49.8268 32.812 49.9625 32.8051 50.1226C32.7983 50.2201 32.7504 50.3071 32.6616 50.3837C32.5796 50.4603 32.46 50.4846 32.3028 50.4568C32.2072 50.4498 32.1252 50.4185 32.0568 50.3628C31.9885 50.3002 31.9338 50.2201 31.8928 50.1226C31.7288 50.1296 31.6092 50.1783 31.534 50.2688C31.4589 50.3524 31.4213 50.4742 31.4213 50.6343C31.4213 50.9545 31.5853 51.2469 31.9133 51.5114L31.452 51.4383C31.5409 51.4105 31.6229 51.3861 31.6981 51.3652C31.7732 51.3443 31.8416 51.3269 31.9031 51.313C32.0192 51.2713 32.1252 51.2399 32.2208 51.219C32.3233 51.1982 32.419 51.1877 32.5079 51.1877C32.665 51.1877 32.7675 51.2156 32.8154 51.2713C32.87 51.32 32.8974 51.3966 32.8974 51.501C32.8974 51.6889 32.853 51.8734 32.7641 52.0544C32.6069 52.0057 32.4361 51.9813 32.2516 51.9813C32.0944 51.9813 31.9441 51.9987 31.8006 52.0335C31.657 52.0614 31.4862 52.1031 31.288 52.1588C31.165 52.1936 31.042 52.225 30.919 52.2528C30.8028 52.2806 30.6935 52.2946 30.591 52.2946Z" fill="#3C3C3C"/>
<path d="M32.578 59.5621H33.8593L33.7773 59.771C33.7773 59.1723 33.8627 58.4414 34.0336 57.5782C34.2044 56.715 34.3719 55.9771 34.5359 55.3645C34.5495 55.3227 34.5598 55.2844 34.5666 55.2496C34.5735 55.2148 34.5803 55.187 34.5871 55.1661L34.6691 55.636L34.0438 55.0095C34.1737 54.8981 34.3274 54.8111 34.5051 54.7484C34.6828 54.6858 34.8536 54.6544 35.0176 54.6544C35.1885 54.6544 35.3115 54.6962 35.3867 54.7797C35.4618 54.8563 35.4994 54.9886 35.4994 55.1765C35.4926 55.2044 35.4789 55.2566 35.4584 55.3332C35.4448 55.4028 35.4277 55.4933 35.4072 55.6047C35.2158 56.4191 35.0484 57.1883 34.9049 57.9123C34.7614 58.6363 34.6896 59.2558 34.6896 59.771L34.2694 60.4497H32.4345L32.578 59.5621ZM32.4345 60.4497C32.373 60.4497 32.3354 60.4149 32.3217 60.3453C32.3081 60.2757 32.3115 60.1643 32.332 60.0111C32.3593 59.858 32.3935 59.7466 32.4345 59.677C32.4687 59.6004 32.5165 59.5621 32.578 59.5621L32.4345 60.4497ZM33.7568 62.5172C33.586 62.5172 33.4459 62.472 33.3365 62.3815C33.234 62.291 33.1828 62.1726 33.1828 62.0264C33.1828 61.8037 33.2545 61.6227 33.398 61.4834C33.5416 61.3512 33.7295 61.2851 33.9618 61.2851C34.1327 61.2851 34.2694 61.3303 34.3719 61.4208C34.4812 61.5183 34.5359 61.6436 34.5359 61.7967C34.5359 62.0125 34.4641 62.1865 34.3206 62.3188C34.1771 62.4511 33.9892 62.5172 33.7568 62.5172Z" fill="#3C3C3C"/>
<path d="M41.9585 60.4497C41.6305 60.4497 41.2956 60.394 40.9539 60.2826C40.6191 60.1782 40.356 60.0564 40.1646 59.9172L40.4824 59.5621H42.4095L42.266 60.4497H41.9585ZM40.4927 60.4497C40.3218 60.4497 40.1886 60.394 40.0929 60.2826C39.9972 60.1782 39.9494 60.0216 39.9494 59.8127C39.9494 59.5621 40.0143 58.9739 40.1441 58.0481C40.274 57.1152 40.4312 56.0954 40.6157 54.9886C40.7592 54.0627 40.8856 53.3179 40.9949 52.754L41.1487 53.109L40.5439 52.4616C40.6738 52.3503 40.8344 52.2632 41.0257 52.2006C41.217 52.131 41.3845 52.0962 41.528 52.0962C41.6715 52.0962 41.7842 52.131 41.8662 52.2006C41.9482 52.2702 41.9893 52.3746 41.9893 52.5138C41.9893 52.6252 41.9551 52.8619 41.8867 53.2239C41.8252 53.5859 41.7535 53.9827 41.6715 54.4143C41.446 55.5768 41.2649 56.5827 41.1282 57.432C40.9915 58.2743 40.9232 58.9809 40.9232 59.5517C40.9232 59.7118 40.9334 59.8441 40.9539 59.9485C40.9813 60.0529 41.0325 60.1399 41.1077 60.2095C41.0257 60.2792 40.93 60.3348 40.8207 60.3766C40.7182 60.4253 40.6088 60.4497 40.4927 60.4497ZM42.4095 59.5621C42.471 59.5621 42.5086 59.5969 42.5223 59.6666C42.536 59.7362 42.5325 59.8475 42.512 60.0007C42.4847 60.1538 42.4505 60.2652 42.4095 60.3348C42.3754 60.4114 42.3275 60.4497 42.266 60.4497L42.4095 59.5621Z" fill="#3C3C3C"/>
<path d="M49.9524 59.5621H51.7155L51.572 60.4497H49.8191L49.9524 59.5621ZM45.6369 61.473C45.3909 61.473 45.2439 61.3756 45.1961 61.1806C45.1483 60.9857 45.1517 60.7421 45.2063 60.4497H42.2747L42.4182 59.5621H43.4945C43.5013 58.9217 43.6209 58.3439 43.8533 57.8288C44.0856 57.3136 44.3965 56.8925 44.7861 56.5653C45.1756 56.2312 45.6129 56.0084 46.0981 55.897C46.2895 55.0895 46.6038 54.5187 47.0412 54.1846C47.4786 53.8434 47.9672 53.6729 48.507 53.6729C48.9171 53.6729 49.2929 53.7634 49.6346 53.9444C49.9763 54.1184 50.253 54.4038 50.4649 54.8006C50.6767 55.1905 50.7827 55.6917 50.7827 56.3043C50.7827 56.5549 50.7656 56.7985 50.7314 57.0352C50.6972 57.2719 50.6494 57.5503 50.5879 57.8705C50.5127 58.2395 50.4546 58.5667 50.4136 58.8521C50.3795 59.1305 50.3624 59.4368 50.3624 59.771L49.9319 60.4497H46.1289C46.1016 60.6377 46.0981 60.8047 46.1186 60.9509C46.146 61.0971 46.2006 61.1911 46.2827 61.2328C46.2075 61.3025 46.1084 61.3581 45.9854 61.3999C45.8692 61.4486 45.753 61.473 45.6369 61.473ZM45.3806 59.5621L45.9034 56.8994C45.466 57.0944 45.1107 57.4285 44.8373 57.9019C44.564 58.3752 44.4205 58.9287 44.4068 59.5621H45.3806ZM47.3487 59.5621L47.7895 57.0352C47.687 56.9447 47.5537 56.8716 47.3897 56.8159C47.2325 56.7533 47.0583 56.7185 46.8669 56.7115L46.3032 59.5621H47.3487ZM49.4603 59.5621C49.474 59.2419 49.4979 58.9565 49.5321 58.7059C49.5663 58.4553 49.6209 58.1281 49.6961 57.7244C49.7576 57.4041 49.802 57.1396 49.8294 56.9308C49.8567 56.715 49.8704 56.4992 49.8704 56.2834C49.8704 55.9075 49.8191 55.5907 49.7166 55.3332C49.6141 55.0756 49.4638 54.8842 49.2656 54.7589C49.0674 54.6266 48.8214 54.5605 48.5275 54.5605C48.2747 54.5605 48.0526 54.6092 47.8612 54.7066C47.6767 54.7971 47.5196 54.9364 47.3897 55.1243C47.2599 55.3123 47.1505 55.549 47.0617 55.8344C47.4786 55.8761 47.8339 55.9945 48.1278 56.1894C48.4284 56.3843 48.6335 56.6001 48.7428 56.8368L48.261 59.5621H49.4603ZM42.2747 60.4497C42.2132 60.4497 42.1756 60.4149 42.1619 60.3453C42.1482 60.2757 42.1517 60.1643 42.1722 60.0111C42.1995 59.858 42.2337 59.7466 42.2747 59.677C42.3088 59.6004 42.3567 59.5621 42.4182 59.5621L42.2747 60.4497ZM51.7155 59.5621C51.777 59.5621 51.8146 59.5969 51.8282 59.6666C51.8419 59.7362 51.8385 59.8475 51.818 60.0007C51.7906 60.1538 51.7565 60.2652 51.7155 60.3348C51.6813 60.4114 51.6335 60.4497 51.572 60.4497L51.7155 59.5621Z" fill="#3C3C3C"/>
<path d="M54.6902 60.4497C54.4579 60.4497 54.2631 60.3836 54.1059 60.2513C53.9556 60.126 53.8428 59.952 53.7677 59.7292L54.1162 59.9067H53.2244L54.0752 57.2858L54.0547 57.432C54.0274 57.613 54.0034 57.7905 53.9829 57.9645C53.9624 58.1316 53.9522 58.2673 53.9522 58.3718C53.9522 58.7268 54.0444 59.0157 54.2289 59.2384C54.4135 59.4542 54.6697 59.5621 54.9977 59.5621H55.4795L55.336 60.4497H54.6902ZM51.7278 59.5621H53.1629L52.8759 59.6457C52.8964 59.3115 52.9715 58.6955 53.1014 57.7975C53.2312 56.8925 53.3884 55.8657 53.5729 54.7171C53.6344 54.3551 53.6925 54.0105 53.7472 53.6833C53.8087 53.3492 53.8668 53.0429 53.9214 52.7645L54.0752 53.109L53.4704 52.4616C53.5866 52.3572 53.7403 52.2702 53.9317 52.2006C54.123 52.131 54.2973 52.0962 54.4545 52.0962C54.6048 52.0962 54.7176 52.131 54.7927 52.2006C54.8747 52.2702 54.9157 52.3781 54.9157 52.5243C54.9157 52.6357 54.885 52.8619 54.8235 53.203C54.762 53.5372 54.6902 53.9061 54.6082 54.3099C54.369 55.549 54.1811 56.5966 54.0444 57.4529C53.9146 58.3091 53.8497 59.0818 53.8497 59.771L53.4192 60.4497H51.5843L51.7278 59.5621ZM51.5843 60.4497C51.5228 60.4497 51.4852 60.4149 51.4715 60.3453C51.4579 60.2757 51.4613 60.1643 51.4818 60.0111C51.5091 59.858 51.5433 59.7466 51.5843 59.677C51.6185 59.6004 51.6663 59.5621 51.7278 59.5621L51.5843 60.4497ZM55.4795 59.5621C55.541 59.5621 55.5786 59.5969 55.5923 59.6666C55.6059 59.7362 55.6025 59.8475 55.582 60.0007C55.5547 60.1538 55.5205 60.2652 55.4795 60.3348C55.4454 60.4114 55.3975 60.4497 55.336 60.4497L55.4795 59.5621Z" fill="#3C3C3C"/>
<path d="M55.4917 59.5621H56.9883L56.7115 59.8441V59.5517C56.7115 59.4264 56.732 59.2419 56.773 58.9983C56.8209 58.7477 56.8721 58.4866 56.9268 58.2151C57.0224 57.7696 57.0976 57.3798 57.1523 57.0456C57.2138 56.7045 57.2445 56.4052 57.2445 56.1476C57.2445 56.0154 57.2343 55.8866 57.2138 55.7613C57.2001 55.629 57.1796 55.5037 57.1523 55.3854C57.2616 55.3158 57.371 55.2601 57.4803 55.2183C57.5896 55.1765 57.6922 55.1556 57.7878 55.1556C57.9518 55.1556 58.0714 55.2148 58.1466 55.3332C58.2286 55.4445 58.2696 55.6151 58.2696 55.8448C58.2696 55.998 58.2525 56.1616 58.2184 56.3356C58.191 56.5096 58.1466 56.7324 58.0851 57.0039C58.0168 57.331 57.9655 57.5851 57.9313 57.7661C57.904 57.9402 57.8903 58.1177 57.8903 58.2987C57.8903 58.6955 57.9826 59.0052 58.1671 59.228C58.3516 59.4508 58.6113 59.5621 58.9461 59.5621H60.1865L59.9097 59.8441V59.5517C59.9097 59.4264 59.9336 59.2315 59.9815 58.9669C60.0293 58.6955 60.084 58.4135 60.1455 58.1212C60.248 57.613 60.3266 57.1849 60.3812 56.8368C60.4427 56.4887 60.4735 56.1894 60.4735 55.9388C60.4735 55.8135 60.4632 55.6882 60.4427 55.5629C60.4291 55.4306 60.4086 55.3053 60.3812 55.187C60.4906 55.1174 60.5999 55.0617 60.7092 55.0199C60.8186 54.9781 60.9211 54.9573 61.0168 54.9573C61.1808 54.9573 61.3004 55.0164 61.3755 55.1348C61.4575 55.2461 61.4985 55.4132 61.4985 55.636C61.4985 55.7961 61.4815 55.9771 61.4473 56.179C61.4131 56.3808 61.3653 56.621 61.3038 56.8994C61.2286 57.2614 61.1739 57.5434 61.1398 57.7452C61.1056 57.9402 61.0885 58.1281 61.0885 58.3091C61.0885 58.7059 61.1808 59.0157 61.3653 59.2384C61.5498 59.4542 61.8095 59.5621 62.1443 59.5621H63.3949L63.1284 59.8441V59.5517C63.1284 59.4264 63.1523 59.221 63.2001 58.9356C63.2548 58.6432 63.3163 58.337 63.3847 58.0167C63.5077 57.3693 63.5965 56.8751 63.6512 56.534C63.7127 56.1929 63.7434 55.8935 63.7434 55.636C63.7434 55.5107 63.7332 55.3854 63.7127 55.2601C63.699 55.1278 63.6785 55.0025 63.6512 54.8842C63.7605 54.8145 63.8698 54.7589 63.9792 54.7171C64.0885 54.6753 64.191 54.6544 64.2867 54.6544C64.4507 54.6544 64.5703 54.7101 64.6455 54.8215C64.7275 54.9329 64.7685 55.0965 64.7685 55.3123C64.7685 55.4793 64.7446 55.6917 64.6967 55.9492C64.6557 56.1998 64.5908 56.5375 64.502 56.9621C64.3721 57.5886 64.273 58.1177 64.2047 58.5493C64.1364 58.9809 64.1022 59.3881 64.1022 59.771L63.6717 60.4497H61.7138C61.4815 60.4497 61.2867 60.3836 61.1295 60.2513C60.9792 60.126 60.8664 59.952 60.7913 59.7292L61.068 59.9067H60.8015L60.453 60.4497H58.5156C58.2833 60.4497 58.0885 60.3836 57.9313 60.2513C57.781 60.126 57.6682 59.952 57.5931 59.7292L57.8698 59.9067H57.6033L57.2548 60.4497H55.3482L55.4917 59.5621ZM55.3482 60.4497C55.2867 60.4497 55.2491 60.4149 55.2354 60.3453C55.2218 60.2757 55.2252 60.1643 55.2457 60.0111C55.273 59.858 55.3072 59.7466 55.3482 59.677C55.3824 59.6004 55.4302 59.5621 55.4917 59.5621L55.3482 60.4497Z" fill="#3C3C3C"/>
<path d="M64.8726 64C64.5036 64 64.2439 63.9338 64.0936 63.8016C63.9364 63.6763 63.8578 63.5335 63.8578 63.3734C64.5275 63.3734 65.0605 63.2516 65.4569 63.008C65.8601 62.7643 66.1881 62.3327 66.4409 61.7132C66.7006 61.0936 66.9193 60.2026 67.097 59.04C67.1243 58.8451 67.1516 58.6607 67.179 58.4866C67.2063 58.3126 67.2336 58.1455 67.261 57.9854C67.4592 56.6628 67.5856 55.81 67.6403 55.4271L67.7018 55.8553L67.1995 55.0095C67.3908 54.8981 67.5753 54.8111 67.753 54.7484C67.9375 54.6858 68.0879 54.6544 68.204 54.6544C68.327 54.6544 68.4261 54.6892 68.5013 54.7589C68.5765 54.8285 68.6141 54.9016 68.6141 54.9781C68.6141 55.0617 68.5526 55.5107 68.4296 56.3251C68.3065 57.1396 68.1733 57.9993 68.0298 58.9043L67.9888 59.1758C67.8453 60.1086 67.6608 60.9196 67.4352 61.6088C67.2097 62.3049 66.8885 62.8757 66.4717 63.3212C66.0548 63.7737 65.5218 64 64.8726 64Z" fill="#3C3C3C"/>
<path d="M70.0234 60.4497C69.8594 60.4497 69.7296 60.3975 69.6339 60.2931C69.5382 60.1887 69.4904 60.0355 69.4904 59.8336C69.4904 59.5273 69.5861 58.7268 69.7774 57.432C69.9688 56.1372 70.1499 54.9677 70.3207 53.9235C70.3344 53.826 70.3446 53.7425 70.3515 53.6729C70.3651 53.6033 70.3754 53.5511 70.3822 53.5163L70.5667 53.7355L69.9619 53.0881C70.0918 52.9768 70.2524 52.8898 70.4437 52.8271C70.6351 52.7575 70.8025 52.7227 70.946 52.7227C71.0895 52.7227 71.2023 52.7575 71.2843 52.8271C71.3663 52.8967 71.4073 53.0011 71.4073 53.1404C71.4073 53.2448 71.3765 53.4675 71.315 53.8086C71.2535 54.1428 71.1852 54.5117 71.11 54.9155C70.9118 55.9597 70.7546 56.8577 70.6385 57.6095C70.5223 58.3613 70.4642 58.9913 70.4642 59.4995C70.4642 59.7083 70.4779 59.8615 70.5052 59.9589C70.5326 60.0564 70.5804 60.1399 70.6487 60.2095C70.5599 60.2861 70.4608 60.3453 70.3515 60.387C70.2421 60.4288 70.1328 60.4497 70.0234 60.4497ZM69.9517 52.2946C69.8013 52.2946 69.6988 52.2667 69.6442 52.211C69.5963 52.1553 69.5724 52.0753 69.5724 51.9709C69.5724 51.8177 69.6168 51.6367 69.7057 51.4279C69.897 51.4836 70.061 51.5114 70.1977 51.5114C70.2934 51.5114 70.43 51.5045 70.6077 51.4905C70.6282 51.4905 70.6487 51.4905 70.6692 51.4905C70.6897 51.4836 70.7102 51.4801 70.7307 51.4801L70.7 51.6263C70.5018 51.4592 70.348 51.2678 70.2387 51.052C70.1362 50.8362 70.0849 50.6134 70.0849 50.3837C70.0849 50.1192 70.1601 49.9138 70.3105 49.7676C70.4676 49.6214 70.7 49.5483 71.0075 49.5483C71.3082 49.5483 71.5781 49.604 71.8173 49.7154C72.0565 49.8268 72.1727 49.9625 72.1658 50.1226C72.159 50.2201 72.1111 50.3071 72.0223 50.3837C71.9403 50.4603 71.8207 50.4846 71.6635 50.4568C71.5679 50.4498 71.4859 50.4185 71.4175 50.3628C71.3492 50.3002 71.2945 50.2201 71.2535 50.1226C71.0895 50.1296 70.9699 50.1783 70.8947 50.2688C70.8196 50.3524 70.782 50.4742 70.782 50.6343C70.782 50.9545 70.946 51.2469 71.274 51.5114L70.8127 51.4383C70.9016 51.4105 70.9836 51.3861 71.0587 51.3652C71.1339 51.3443 71.2023 51.3269 71.2638 51.313C71.3799 51.2713 71.4859 51.2399 71.5815 51.219C71.684 51.1982 71.7797 51.1877 71.8685 51.1877C72.0257 51.1877 72.1282 51.2156 72.1761 51.2713C72.2307 51.32 72.2581 51.3966 72.2581 51.501C72.2581 51.6889 72.2137 51.8734 72.1248 52.0544C71.9676 52.0057 71.7968 51.9813 71.6123 51.9813C71.4551 51.9813 71.3048 51.9987 71.1613 52.0335C71.0177 52.0614 70.8469 52.1031 70.6487 52.1588C70.5257 52.1936 70.4027 52.225 70.2797 52.2528C70.1635 52.2806 70.0542 52.2946 69.9517 52.2946Z" fill="#3C3C3C"/>
</svg>
