<svg width="24" height="24" viewBox="0 0 24 24" fill="none" xmlns="http://www.w3.org/2000/svg">
<g opacity="0.8">
<rect width="24" height="24" rx="12" fill="#34C759" fill-opacity="0.12"/>
<path d="M16.625 10.5751C15.47 8.76009 13.78 7.71509 12 7.71509C11.11 7.71509 10.245 7.97509 9.455 8.46009C8.665 8.95009 7.955 9.66509 7.375 10.5751C6.875 11.3601 6.875 12.6351 7.375 13.4201C8.53 15.2401 10.22 16.2801 12 16.2801C12.89 16.2801 13.755 16.0201 14.545 15.5351C15.335 15.0451 16.045 14.3301 16.625 13.4201C17.125 12.6401 17.125 11.3601 16.625 10.5751ZM12 14.0201C10.88 14.0201 9.98 13.1151 9.98 12.0001C9.98 10.8851 10.88 9.98009 12 9.98009C13.12 9.98009 14.02 10.8851 14.02 12.0001C14.02 13.1151 13.12 14.0201 12 14.0201Z" fill="#34C759"/>
<path d="M12.0002 10.5701C11.2152 10.5701 10.5752 11.2101 10.5752 12.0001C10.5752 12.7851 11.2152 13.4251 12.0002 13.4251C12.7852 13.4251 13.4302 12.7851 13.4302 12.0001C13.4302 11.2151 12.7852 10.5701 12.0002 10.5701Z" fill="#34C759"/>
</g>
</svg>
