<svg width="35" height="35" viewBox="0 0 35 35" fill="none" xmlns="http://www.w3.org/2000/svg">
<rect width="35" height="35" rx="17.5" fill="#8174A0"/>
<path d="M16.8541 9.24571C17.4958 8.70488 18.5316 8.70488 19.155 9.24571L20.6033 10.4832C20.8783 10.7124 21.4008 10.9049 21.7675 10.9049H23.3258C24.2975 10.9049 25.095 11.7024 25.095 12.674V14.2324C25.095 14.599 25.2875 15.1124 25.5166 15.3874L26.7541 16.8357C27.295 17.4774 27.295 18.5132 26.7541 19.1365L25.5166 20.5849C25.2875 20.8599 25.095 21.3732 25.095 21.7399V23.2982C25.095 24.2699 24.2975 25.0674 23.3258 25.0674H21.7675C21.4008 25.0674 20.8875 25.2599 20.6125 25.489L19.1641 26.7265C18.5225 27.2674 17.4866 27.2674 16.8633 26.7265L15.415 25.489C15.14 25.2599 14.6175 25.0674 14.26 25.0674H12.6558C11.6841 25.0674 10.8866 24.2699 10.8866 23.2982V21.7307C10.8866 21.3732 10.7033 20.8507 10.4741 20.5849L9.23664 19.1274C8.70497 18.4949 8.70497 17.4682 9.23664 16.8357L10.4741 15.3782C10.7033 15.1032 10.8866 14.5899 10.8866 14.2324V12.6832C10.8866 11.7115 11.6841 10.914 12.6558 10.914H14.2416C14.6083 10.914 15.1216 10.7215 15.3966 10.4924L16.8541 9.24571Z" stroke="white" stroke-width="1.5" stroke-linecap="round" stroke-linejoin="round"/>
<path d="M18 14.4524V18.8799" stroke="white" stroke-width="1.5" stroke-linecap="round" stroke-linejoin="round"/>
<path d="M17.9951 21.6667H18.0034" stroke="white" stroke-width="2" stroke-linecap="round" stroke-linejoin="round"/>
</svg>
