<svg width="35" height="35" viewBox="0 0 35 35" fill="none" xmlns="http://www.w3.org/2000/svg">
<rect width="35" height="35" rx="17.5" fill="#8174A0"/>
<path d="M14.6816 18.0001L16.8908 20.2184L21.3183 15.7817" stroke="white" stroke-width="1.5" stroke-linecap="round" stroke-linejoin="round"/>
<path d="M16.8541 9.24571C17.4866 8.70488 18.5225 8.70488 19.1641 9.24571L20.6125 10.4924C20.8875 10.7307 21.4008 10.9232 21.7675 10.9232H23.3258C24.2975 10.9232 25.095 11.7207 25.095 12.6924V14.2507C25.095 14.6082 25.2875 15.1307 25.5258 15.4057L26.7725 16.854C27.3133 17.4865 27.3133 18.5224 26.7725 19.164L25.5258 20.6124C25.2875 20.8874 25.095 21.4007 25.095 21.7674V23.3257C25.095 24.2974 24.2975 25.0949 23.3258 25.0949H21.7675C21.41 25.0949 20.8875 25.2874 20.6125 25.5257L19.1641 26.7724C18.5316 27.3132 17.4958 27.3132 16.8541 26.7724L15.4058 25.5257C15.1308 25.2874 14.6175 25.0949 14.2508 25.0949H12.665C11.6933 25.0949 10.8958 24.2974 10.8958 23.3257V21.7582C10.8958 21.4007 10.7033 20.8874 10.4741 20.6124L9.23664 19.1549C8.70497 18.5224 8.70497 17.4957 9.23664 16.8632L10.4741 15.4057C10.7033 15.1307 10.8958 14.6174 10.8958 14.2599V12.6832C10.8958 11.7115 11.6933 10.914 12.665 10.914H14.2508C14.6083 10.914 15.1308 10.7215 15.4058 10.4832L16.8541 9.24571Z" stroke="white" stroke-width="1.5" stroke-linecap="round" stroke-linejoin="round"/>
</svg>
