<svg width="35" height="35" viewBox="0 0 35 35" fill="none" xmlns="http://www.w3.org/2000/svg">
<rect width="35" height="35" rx="17.5" fill="#8174A0"/>
<path d="M9.90576 13.8201L17.9999 18.5042L26.0391 13.8476" stroke="white" stroke-width="1.5" stroke-linecap="round" stroke-linejoin="round"/>
<path d="M18 26.8093V18.4951" stroke="white" stroke-width="1.5" stroke-linecap="round" stroke-linejoin="round"/>
<path d="M16.1026 9.27343L11.2076 11.9868C10.0984 12.6009 9.19092 14.1409 9.19092 15.4059V20.5851C9.19092 21.8501 10.0984 23.3901 11.2076 24.0043L16.1026 26.7268C17.1476 27.3043 18.8618 27.3043 19.9068 26.7268L24.8018 24.0043C25.9109 23.3901 26.8184 21.8501 26.8184 20.5851V15.4059C26.8184 14.1409 25.9109 12.6009 24.8018 11.9868L19.9068 9.26426C18.8526 8.68676 17.1476 8.68676 16.1026 9.27343Z" stroke="white" stroke-width="1.5" stroke-linecap="round" stroke-linejoin="round"/>
</svg>
