<svg width="35" height="35" viewBox="0 0 35 35" fill="none" xmlns="http://www.w3.org/2000/svg">
<rect width="35" height="35" rx="17.5" fill="#8174A0"/>
<path d="M17.6052 9.30821L17.5777 9.37238L14.9194 15.5415H12.3069C11.6835 15.5415 11.0877 15.6699 10.5469 15.899L12.151 12.0674L12.1877 11.9757L12.2519 11.829C12.2702 11.774 12.2885 11.719 12.316 11.6732C13.5169 8.89571 14.8735 8.26321 17.6052 9.30821Z" stroke="white" stroke-width="1.5" stroke-linecap="round" stroke-linejoin="round"/>
<path d="M22.5456 15.725C22.1331 15.5967 21.6931 15.5417 21.2531 15.5417H14.9189L17.5773 9.37252L17.6048 9.30835C17.7423 9.35418 17.8706 9.41835 18.0081 9.47335L20.0339 10.3258C21.1614 10.7933 21.9498 11.2792 22.4264 11.8658C22.5181 11.9758 22.5914 12.0767 22.6556 12.1958C22.7381 12.3242 22.8023 12.4525 22.8389 12.59C22.8756 12.6725 22.9031 12.755 22.9214 12.8283C23.1689 13.5983 23.0223 14.5425 22.5456 15.725Z" stroke="white" stroke-width="1.5" stroke-linecap="round" stroke-linejoin="round"/>
<path d="M25.7284 20.0151V21.8026C25.7284 21.9859 25.7192 22.1692 25.7101 22.3526C25.5359 25.5517 23.7484 27.1651 20.3567 27.1651H13.2067C12.9867 27.1651 12.7667 27.1467 12.5559 27.1192C9.6409 26.9267 8.08257 25.3684 7.89007 22.4534C7.86257 22.2426 7.84424 22.0226 7.84424 21.8026V20.0151C7.84424 18.1726 8.96257 16.5867 10.5576 15.8992C11.1076 15.6701 11.6942 15.5417 12.3176 15.5417H21.2642C21.7134 15.5417 22.1534 15.6059 22.5567 15.7251C24.3809 16.2842 25.7284 17.9892 25.7284 20.0151Z" stroke="white" stroke-width="1.5" stroke-linecap="round" stroke-linejoin="round"/>
<path d="M12.151 12.0674L10.5468 15.899C8.95183 16.5865 7.8335 18.1724 7.8335 20.0149V17.329C7.8335 14.7257 9.68516 12.5532 12.151 12.0674Z" stroke="white" stroke-width="1.5" stroke-linecap="round" stroke-linejoin="round"/>
<path d="M25.7254 17.3288V20.0146C25.7254 17.9979 24.387 16.2838 22.5537 15.7338C23.0304 14.5421 23.1679 13.6071 22.9387 12.8279C22.9204 12.7454 22.8929 12.6629 22.8562 12.5896C24.5612 13.4696 25.7254 15.2754 25.7254 17.3288Z" stroke="white" stroke-width="1.5" stroke-linecap="round" stroke-linejoin="round"/>
</svg>
